<svg id="Layer_1" data-name="Layer 1" xmlns="http://www.w3.org/2000/svg" viewBox="0 0 99.96 99.98">
  <g>
    <path id="bell" d="M50.18,92.54H23.43c-4.35,0-6.94-2.91-6.23-7.23,1-6,2.12-12,3.2-18Q22.7,54.43,25,41.59q1.88-10.46,3.75-20.9a6,6,0,0,1,6-5c1.76,0,3.52-.05,5.28,0a1,1,0,0,0,1.18-.91c.5-1.95,1.07-3.88,1.61-5.82a2.78,2.78,0,0,1,3-2.34h8.59a2.78,2.78,0,0,1,3,2.33C58,10.8,58.49,12.67,59,14.56c.2.8.52,1.17,1.43,1.12,1.66-.09,3.32,0,5,0a6,6,0,0,1,6.08,5.12Q75.24,41.66,79,62.55q2.06,11.37,4.11,22.72c.63,3.47-.82,6.13-3.81,7a8.16,8.16,0,0,1-2.21.27Q63.65,92.55,50.18,92.54ZM80.39,81.48c-.49-2.71-1-5.64-1.54-8.57q-2.31-12.7-4.63-25.39Q71.79,34.2,69.35,20.88a3.67,3.67,0,0,0-3.77-3.14H34.82A3.74,3.74,0,0,0,30.87,21q-2.55,14.15-5.09,28.28Q23.56,61.64,21.33,74c-.46,2.58-.91,5.16-1.34,7.62a19,19,0,0,1,3-.48q26.51,0,53,0C77.46,81.08,78.92,81.34,80.39,81.48ZM50.29,83H37.6c-4.91,0-9.82,0-14.73,0a3.5,3.5,0,0,0-3.53,4.52c.62,1.85,2.16,2.85,4.51,2.85q26.44,0,52.89,0a6.17,6.17,0,0,0,1.36-.16A3.92,3.92,0,0,0,81,85.32,3.66,3.66,0,0,0,77.42,83Q63.85,83,50.29,83Zm6.77-67.46A4.78,4.78,0,0,0,57,14.9C56.45,13,55.94,11,55.33,9.1c-.08-.25-.65-.47-1-.48-2.08,0-4.16,0-6.24,0-2.93,0-2.94,0-3.72,2.78-.38,1.36-.73,2.73-1.12,4.18Z" transform="translate(-0.2 -0.21)"/>
    <path id="hook" d="M53,12.08a2.72,2.72,0,0,1-2.88,2.54,2.77,2.77,0,0,1-2.94-2.5A2.72,2.72,0,0,1,50,9.58,2.79,2.79,0,0,1,53,12.08Zm-2.05.38V12c-.59-.42-1.16-.52-1.68.43Z" transform="translate(-0.2 -0.21)"/>
  </g>
</svg>
