<svg id="Layer_1" data-name="Layer 1" xmlns="http://www.w3.org/2000/svg" viewBox="0 0 100 100">
  <defs>
    <style>
      .cls-1 {
        fill: #fff;
      }
    </style>
  </defs>
  <title>cymbal</title>
  <g>
    <path class="cls-1" d="M.2.2h100v100H.2ZM50.31,4.35C24.49,4.56,4,25.05,4.35,50.68a45.84,45.84,0,1,0,46-46.33Z" transform="translate(-0.2 -0.2)"/>
    <path id="rim" d="M50.31,4.35a45.88,45.88,0,1,1-46,46.33C4,25.05,24.49,4.56,50.31,4.35Zm22,83.6c0-.14-.08-.29-.13-.44a129,129,0,0,0-12.22-28,4.62,4.62,0,0,1-.27-4.78,10.08,10.08,0,0,0,.8-6.83,10.63,10.63,0,0,0-12.12-8.27,3.54,3.54,0,0,1-3.44-1.29A119,119,0,0,0,30.26,23.91c-2.85-2.34-5.84-4.53-8.73-6.75a43.6,43.6,0,0,0-6,59.87C29.83,95.51,55,98.62,72.27,88Zm2.31-1.18C87.75,77.27,94.81,64.39,93.83,48,92.72,29.55,83.11,16.38,66,9.49c-15.19-6.11-29.6-3.39-42.94,6.2.4.31.64.48.86.66,3.9,3.13,8,6.08,11.66,9.45s7.29,7.43,10.94,11.13a2.12,2.12,0,0,0,1.46.68,12.51,12.51,0,0,1,12.38,5c3.08,4,3.4,8.53,1.29,13.15a2.6,2.6,0,0,0,.11,2.56c2,3.81,4.2,7.57,5.94,11.51C70.16,75.33,72.26,81,74.58,86.77Z" transform="translate(-0.2 -0.2)"/>
    <path class="cls-1" d="M72.27,88C55,98.62,29.83,95.51,15.51,77a43.6,43.6,0,0,1,6-59.87c2.89,2.22,5.88,4.41,8.73,6.75A119,119,0,0,1,44.89,38.38a3.54,3.54,0,0,0,3.44,1.29,10.63,10.63,0,0,1,12.12,8.27,10.08,10.08,0,0,1-.8,6.83,4.62,4.62,0,0,0,.27,4.78,129,129,0,0,1,12.22,28C72.19,87.66,72.23,87.81,72.27,88ZM50.63,60.84c-4.7-.19-8.05-2.05-10-6a10.26,10.26,0,0,1,.61-10.57c.37-.61.64-1.22-.08-1.7s-1.25,0-1.66.62a12.46,12.46,0,0,0-1.94,5.45,12.9,12.9,0,0,0,16,13.77c.68-.18,1.31-.48,1.11-1.31s-.89-.82-1.59-.7Zm-.44-14.41a3.89,3.89,0,0,0-3.88,3.71A4,4,0,0,0,50.37,54,3.76,3.76,0,0,0,54,50.26,3.84,3.84,0,0,0,50.19,46.43Z" transform="translate(-0.2 -0.2)"/>
    <path class="cls-1" d="M74.58,86.77c-2.32-5.77-4.42-11.44-6.86-17-1.74-3.94-3.91-7.7-5.94-11.51a2.6,2.6,0,0,1-.11-2.56c2.11-4.62,1.79-9.1-1.29-13.15a12.51,12.51,0,0,0-12.38-5,2.12,2.12,0,0,1-1.46-.68c-3.65-3.7-7.1-7.62-10.94-11.13s-7.76-6.32-11.66-9.45c-.22-.18-.46-.35-.86-.66C36.42,6.1,50.83,3.38,66,9.49,83.11,16.38,92.72,29.55,93.83,48,94.81,64.39,87.75,77.27,74.58,86.77Z" transform="translate(-0.2 -0.2)"/>
    <path id="ridge" d="M50.63,60.84l2.44-.42c.7-.12,1.39-.09,1.59.7s-.43,1.13-1.11,1.31a12.9,12.9,0,0,1-16-13.77,12.46,12.46,0,0,1,1.94-5.45c.41-.64.89-1.13,1.66-.62s.45,1.09.08,1.7a10.26,10.26,0,0,0-.61,10.57C42.58,58.79,45.93,60.65,50.63,60.84Z" transform="translate(-0.2 -0.2)"/>
    <path id="center" d="M50.19,46.43A3.84,3.84,0,0,1,54,50.26,3.76,3.76,0,0,1,50.37,54a4,4,0,0,1-4.06-3.89A3.89,3.89,0,0,1,50.19,46.43ZM52,50.18a1.8,1.8,0,0,0-1.83-1.76,1.83,1.83,0,0,0-1.71,1.89A1.81,1.81,0,0,0,50.26,52,1.83,1.83,0,0,0,52,50.18Z" transform="translate(-0.2 -0.2)"/>
    <path class="cls-1" d="M52,50.18A1.83,1.83,0,0,1,50.26,52a1.81,1.81,0,0,1-1.83-1.66,1.83,1.83,0,0,1,1.71-1.89A1.8,1.8,0,0,1,52,50.18Z" transform="translate(-0.2 -0.2)"/>
  </g>
</svg>
