<svg id="Layer_1" data-name="Layer 1" xmlns="http://www.w3.org/2000/svg" viewBox="0 0 99.98 99.96">
  <g>
    <path class="cls-1" d="M100.2,100.19H.22V.23h100ZM26.46,13.84a4.13,4.13,0,0,0-4.17,3.64,2,2,0,0,1-.54,1.13,43.56,43.56,0,0,0-10.7,14.72,1.8,1.8,0,0,1-.85.83,4,4,0,0,0-2,5.7,1.94,1.94,0,0,1,.31,1c-.1,1.17-.29,2.32-.4,3.49a44.52,44.52,0,0,0,.63,14.74,2.42,2.42,0,0,1-.19,1.52,4,4,0,0,0,2,5.68,1.56,1.56,0,0,1,.73.68A43,43,0,0,0,22.17,81.87a1.66,1.66,0,0,1,.48,1,4.13,4.13,0,0,0,5,3.7,1.58,1.58,0,0,1,1.05.15,43.56,43.56,0,0,0,17.56,5.69,1.35,1.35,0,0,1,.8.41,4,4,0,0,0,6.3,0,1.34,1.34,0,0,1,.79-.42,42.19,42.19,0,0,0,17.47-5.63A2.33,2.33,0,0,1,73,86.54,4,4,0,0,0,77.74,83a2.28,2.28,0,0,1,.67-1.28A43.9,43.9,0,0,0,89.06,67.06a1.81,1.81,0,0,1,.82-.82,4,4,0,0,0,1.94-5.57,2.12,2.12,0,0,1-.2-1.64,40.71,40.71,0,0,0,0-17.88,2,2,0,0,1,.17-1.25,3.92,3.92,0,0,0-2.09-5.76,1.53,1.53,0,0,1-.71-.71A43.52,43.52,0,0,0,78.1,18.49a1.73,1.73,0,0,1-.49-1A4,4,0,0,0,72.49,14a1.57,1.57,0,0,1-1-.14A42.79,42.79,0,0,0,54.14,8.14,2.05,2.05,0,0,1,53,7.54a4,4,0,0,0-5.92-.13,2.87,2.87,0,0,1-1.57.76,41.44,41.44,0,0,0-15.27,4.65C29,13.48,27.85,14.64,26.46,13.84Z" transform="translate(-0.22 -0.23)"/>
    <path id="outerrim" d="M26.46,13.84c1.39.8,2.53-.36,3.79-1A41.44,41.44,0,0,1,45.52,8.17a2.87,2.87,0,0,0,1.57-.76A4,4,0,0,1,53,7.54a2.05,2.05,0,0,0,1.13.6,42.79,42.79,0,0,1,17.37,5.67,1.57,1.57,0,0,0,1,.14,4,4,0,0,1,5.12,3.56,1.73,1.73,0,0,0,.49,1A43.52,43.52,0,0,1,89,33.43a1.53,1.53,0,0,0,.71.71,3.92,3.92,0,0,1,2.09,5.76,2,2,0,0,0-.17,1.25,40.71,40.71,0,0,1,0,17.88,2.12,2.12,0,0,0,.2,1.64,4,4,0,0,1-1.94,5.57,1.81,1.81,0,0,0-.82.82A43.9,43.9,0,0,1,78.41,81.71,2.28,2.28,0,0,0,77.74,83,4,4,0,0,1,73,86.54a2.33,2.33,0,0,0-1.43.22,42.19,42.19,0,0,1-17.47,5.63,1.34,1.34,0,0,0-.79.42,4,4,0,0,1-6.3,0,1.35,1.35,0,0,0-.8-.41,43.56,43.56,0,0,1-17.56-5.69,1.58,1.58,0,0,0-1.05-.15,4.13,4.13,0,0,1-5-3.7,1.66,1.66,0,0,0-.48-1A43,43,0,0,1,11.29,66.93a1.56,1.56,0,0,0-.73-.68,4,4,0,0,1-2-5.68,2.42,2.42,0,0,0,.19-1.52,44.52,44.52,0,0,1-.63-14.74c.11-1.17.3-2.32.4-3.49a1.94,1.94,0,0,0-.31-1,4,4,0,0,1,2-5.7,1.8,1.8,0,0,0,.85-.83,43.56,43.56,0,0,1,10.7-14.72,2,2,0,0,0,.54-1.13A4.13,4.13,0,0,1,26.46,13.84ZM9.79,50.14A40.39,40.39,0,1,0,50.27,9.8,40.44,40.44,0,0,0,9.79,50.14Z" transform="translate(-0.22 -0.23)"/>
    <path class="cls-1" d="M9.79,50.14A40.39,40.39,0,1,1,50,90.58,40.46,40.46,0,0,1,9.79,50.14ZM51.12,88.41a38.23,38.23,0,1,0-39-34.86A38.3,38.3,0,0,0,51.12,88.41Z" transform="translate(-0.22 -0.23)"/>
    <path id="innerrim" d="M51.12,88.41A38.23,38.23,0,1,1,88.29,47,38.25,38.25,0,0,1,51.12,88.41ZM50.25,14a36.16,36.16,0,1,0,36.1,36A36.12,36.12,0,0,0,50.25,14Z" transform="translate(-0.22 -0.23)"/>
    <path class="cls-1" d="M50.25,14A36.16,36.16,0,1,1,14,50.14,36.12,36.12,0,0,1,50.25,14Z" transform="translate(-0.22 -0.23)"/>
  </g>
</svg>
