<svg id="Layer_1" data-name="Layer 1" xmlns="http://www.w3.org/2000/svg" viewBox="0 0 99.99 99.97">
  <defs>
    <style>
      .cls-1 {
        fill: #fff;
      }
    </style>
  </defs>
  <title>RDMASK</title>
  <g>
    <path id="_12" data-name="12" d="M.16.16h100v100H.16ZM49.62,2.84c-13.27.34-25.07,5.28-34.44,15.53a45.52,45.52,0,0,0-12.28,31A45.91,45.91,0,0,0,16.29,83.07,46,46,0,0,0,49.65,97.42,45.69,45.69,0,0,0,82,85a45.79,45.79,0,0,0,15.4-34A45.88,45.88,0,0,0,83,16.14C73.93,7.33,62.84,3,49.62,2.84Z" transform="translate(-0.16 -0.16)"/>
    <path class="cls-1" d="M49.62,2.84C62.84,3,73.93,7.33,83,16.14A45.88,45.88,0,0,1,97.43,51,45.79,45.79,0,0,1,82,85,45.69,45.69,0,0,1,49.65,97.42,46,46,0,0,1,16.29,83.07,45.91,45.91,0,0,1,2.9,49.38a45.52,45.52,0,0,1,12.28-31C24.55,8.12,36.35,3.18,49.62,2.84ZM48,5.16C38.63,5.21,28.44,9,19.84,17,10.39,25.68,5.4,36.47,5.2,49.32A43.39,43.39,0,0,0,17.63,81.13a43.73,43.73,0,0,0,31.8,14,43.32,43.32,0,0,0,31.5-12.22c9-8.51,13.9-19,14.19-31.38C95.74,25,74.75,5.17,48,5.16Z" transform="translate(-0.16 -0.16)"/>
    <path id="_11" data-name="11" d="M48,5.16C74.75,5.17,95.74,25,95.12,51.5,94.83,63.9,90,74.37,80.93,82.88A43.32,43.32,0,0,1,49.43,95.1a43.73,43.73,0,0,1-31.8-14A43.39,43.39,0,0,1,5.2,49.32C5.4,36.47,10.39,25.68,19.84,17,28.44,9,38.63,5.21,48,5.16Zm11.55,37c-2.23.2-4.47.34-6.69.63A54,54,0,0,0,46.5,43.9a54,54,0,0,0-6.8,2.23,65.36,65.36,0,0,0-6.81,3.25c-2.15,1.17-4.21,2.51-6.23,3.88A47.56,47.56,0,0,0,21.71,57a19.63,19.63,0,0,0-5.18,7.62A10.38,10.38,0,0,0,16.74,73a12.29,12.29,0,0,0,4,4.68,18.94,18.94,0,0,0,7.31,3.35c2.34.5,4.73.8,7.11,1.12a49.51,49.51,0,0,0,5.81.59,58.93,58.93,0,0,0,5.92-.44c2-.18,4.1-.35,6.13-.64a61,61,0,0,0,9.12-2.14,52.71,52.71,0,0,0,11.31-4.81,21.14,21.14,0,0,0,6-4.4c.58-.69,1.19-1.35,1.74-2.06,2-2.63,3.45-5.49,3.23-9A13.22,13.22,0,0,0,82.3,53a18.77,18.77,0,0,0-5.16-5.27,26.39,26.39,0,0,0-5.23-3.14A34.82,34.82,0,0,0,59.52,42.2ZM46.27,25l-.4-.07c-.5.91-1,1.81-1.49,2.73a9.82,9.82,0,0,1-2.8,3.68,1.72,1.72,0,0,1-2.23.13,6.73,6.73,0,0,1-2.59-3.35,35.22,35.22,0,0,1-1-3.83,1.71,1.71,0,0,0-1.57-1.15,1.52,1.52,0,0,0-1.39,1.13c-.23,1.91-.51,3.82-.61,5.74a6.25,6.25,0,0,1-2.34,4.93c-1.42,1.13-2.21,1.16-3.23-.26-.62-.87-1.09-1.85-1.64-2.77s-1.16-2-1.85-3c-.18-.25-.79-.31-1.17-.24-.19,0-.37.55-.4.87-.1,1.06,0,2.14-.2,3.18-.38,2.39-.8,4.78-1.34,7.14-.4,1.78-1,3.52-1.52,5.27-.51,1.59,0,2.5,1.49,2.6a4.18,4.18,0,0,0,1.1-.16C23.55,47,26,46.45,28.42,46c3-.62,6.1-1.17,9.15-1.77,2.31-.44,4.6-.93,6.9-1.36,3.26-.6,6.53-1.16,9.79-1.74l8.35-1.54,11.29-2c1.2-.22,1.46-.09,2.06,1a4.11,4.11,0,0,0,2.24,1.88,3.76,3.76,0,0,0,0-1,9.84,9.84,0,0,0-.64-1.63c-.43-.95-.36-1.11.61-1.47.46-.17,1-.33.8-1.11H77.65c-.63,0-1.23-.09-1.44-.85-.26-.93-.6-1.84-.83-2.77a14.42,14.42,0,0,1-.08-7.06c.39-1.52.94-3,1.42-4.5a1.18,1.18,0,0,0-.85-1.7c-.66-.22-1.06,0-1.34.93-.64,2-1.25,3.92-1.89,5.87a.61.61,0,0,1-.39.36c-.64.09-1.3.07-1.92.2-1.23.27-2-.06-2.33-1.29a24.26,24.26,0,0,1-.35-2.58c-.09-.52,0-1.16-.65-1.44a1.59,1.59,0,0,0-1.87.45,3.49,3.49,0,0,0-.74,1.38,14.82,14.82,0,0,1-1.55,4.21c-.64,1-1.16,2.13-1.76,3.18a1.83,1.83,0,0,1-1.66.78c-2.81.19-6.24-2.56-7.08-5.55A42.53,42.53,0,0,1,51.07,14.4a26.58,26.58,0,0,0-.55-4.25c-.18-1-.64-1.22-1.45-1.08s-.82.76-.79,1.37c.11,2.37-.53,4.63-.88,6.93-.3,1.94-.7,3.87-1,5.81,0,.37.3.8.46,1.2a7.42,7.42,0,0,0,1-.54,4.11,4.11,0,0,0,.51-.75c.19-.27.39-.52.7-.93.16.49.3.8.37,1.13,1,4.26,3.41,7.23,7.66,8.47,1.78.52,3.68.73,5.15-.9a8.46,8.46,0,0,0,.84-1.27l2-3.25c.32-.51.7-.74,1.24-.25a14.33,14.33,0,0,0,1.14.92c1.42,1,3.47,1.26,4.63-.4.07-.11.24-.15.46-.28a22,22,0,0,0,1.43,8.18c.24.67,0,1-.6,1.11-1.37.27-2.75.54-4.13.78-2,.35-4,.65-6,1-2.41.42-4.81.89-7.22,1.34l-7.21,1.34-6.24,1.15c-2.18.4-4.37.77-6.55,1.19s-4.34.89-6.52,1.31c-2.4.46-4.81.87-7.22,1.33-.86.17-1.17,0-1.09-.93a3.71,3.71,0,0,1,.21-.81,22.17,22.17,0,0,0,1.2-6.3A17.83,17.83,0,0,1,23,34.75c0-.18.18-.49.25-.48a.92.92,0,0,1,.58.27,8.59,8.59,0,0,1,.73,1,4.54,4.54,0,0,0,6,1.47,7.21,7.21,0,0,0,3.41-4.65c.2-.88.18-1.84,1-2.47.78.83,1.52,1.66,2.31,2.44a4.68,4.68,0,0,0,6.49,0A9.18,9.18,0,0,0,46.55,26,3.43,3.43,0,0,0,46.27,25ZM66.15,85c-.9.07-1.3.45-1.17,1.35A8.07,8.07,0,0,1,65,88a3.4,3.4,0,0,1-.24.73c-.64-.69-1.15-1.26-1.68-1.81s-1-.7-1.77-.1l1.35,4c.35,1.07.39,1.09,1.32.61.2-.84-.86-1.5-.27-2.47a8.83,8.83,0,0,0,1,1.21,1.34,1.34,0,0,0,.9.23c.13,0,.28-.43.31-.67,0-.48,0-1,0-1.47.83.06.72.74.93,1.14.46.88.79,1,1.56.28ZM39.43,92.12a12.58,12.58,0,0,0,2.85.65c1.44,0,2.52-.45,2-2.28a1.35,1.35,0,0,1,.15-.89A1.17,1.17,0,0,0,44.2,88c-1-.87-2.18-.84-3.36-1ZM28.05,87.5c1,.79,1,.79,1.65-.2A1.48,1.48,0,0,1,30,87c.17-.15.36-.28.55-.42a7.88,7.88,0,0,1,.57.85c.07.14,0,.36,0,.54a1.64,1.64,0,0,0,1.58,1.82c-.07-.44-.11-.86-.21-1.28-.24-1.07-.25-1.07.77-1.48a1.42,1.42,0,0,0,.49-2.42A27.68,27.68,0,0,0,31,82.86Zm23.08.62v5.29l.4,0c.94,0,.91,0,.83-.89a5.85,5.85,0,0,1,.15-1.15l.31-.13c.46.51.94,1,1.39,1.52s1.34.69,2.29-.16l-2.16-1.37a5.47,5.47,0,0,0,.7-.61,1.44,1.44,0,0,0,.15-1.75,1.81,1.81,0,0,0-1.14-.74A25.63,25.63,0,0,0,51.13,88.12ZM36.79,85.78a2.82,2.82,0,0,0-3,2.82,2.68,2.68,0,0,0,2.74,2.67,2.89,2.89,0,0,0,2.91-2.81A2.57,2.57,0,0,0,36.79,85.78Zm8.32,7.41c.64.1,1.12.2,1.6.23a3,3,0,0,0,2.87-.93,2.74,2.74,0,0,0,.27-3.11A3.17,3.17,0,0,0,47.1,88c-1.35-.15-1.35-.11-1.48,1.34,0,.13-.06.25-.08.37C45.4,90.86,45.25,92,45.11,93.19Zm25.81-9.82a2.78,2.78,0,0,0-3.16,1c-.63,1.14-.09,2.06,1.21,2.07.65,0,1.3,0,2,0a3.09,3.09,0,0,1,.78.29c-.16.25-.28.62-.51.71-.5.2-1.08.22-1.6.41a3,3,0,0,0-.76.63c.17.15.33.42.51.43a3.84,3.84,0,0,0,3.13-1.15,1.49,1.49,0,0,0,.4-1.69,1.41,1.41,0,0,0-1.33-.88,6.36,6.36,0,0,0-1.9.19c-.52.16-.7,0-.86-.32C69.14,84,70.75,84.72,70.92,83.37ZM60.25,87.05c-1.09,0-1.18.1-.89,1.09A18.84,18.84,0,0,1,60,90.58a1.23,1.23,0,1,1-2.45,0c-.14-.83-.33-1.64-.45-2.47-.06-.48-.38-.59-.7-.45a.83.83,0,0,0-.39.67,14.78,14.78,0,0,0,.3,2.19c.32,1.59,1,2.39,2.7,2.27A2.15,2.15,0,0,0,61.09,90C60.85,89,60.54,88.07,60.25,87.05Z" transform="translate(-0.16 -0.16)"/>
    <path class="cls-1" d="M59.52,42.2a34.82,34.82,0,0,1,12.39,2.4,26.39,26.39,0,0,1,5.23,3.14A18.77,18.77,0,0,1,82.3,53a13.22,13.22,0,0,1,2.09,6.32c.22,3.47-1.18,6.33-3.23,9-.55.71-1.16,1.37-1.74,2.06a21.14,21.14,0,0,1-6,4.4,52.71,52.71,0,0,1-11.31,4.81A61,61,0,0,1,53,81.7c-2,.29-4.08.46-6.13.64a58.93,58.93,0,0,1-5.92.44,49.51,49.51,0,0,1-5.81-.59c-2.38-.32-4.77-.62-7.11-1.12a18.94,18.94,0,0,1-7.31-3.35,12.29,12.29,0,0,1-4-4.68,10.38,10.38,0,0,1-.21-8.42A19.63,19.63,0,0,1,21.71,57a47.56,47.56,0,0,1,4.95-3.74c2-1.37,4.08-2.71,6.23-3.88a65.36,65.36,0,0,1,6.81-3.25,54,54,0,0,1,6.8-2.23,54,54,0,0,1,6.33-1.07C55.05,42.54,57.29,42.4,59.52,42.2ZM47.59,47.71l-5,1A36.74,36.74,0,0,0,34.7,51.1a40.36,40.36,0,0,0-10,6.26c-2.52,2.2-4.84,4.53-6.12,7.71a7.59,7.59,0,0,0,0,6.64A11.74,11.74,0,0,0,25.1,77a30.86,30.86,0,0,0,7.53,1.92,31.91,31.91,0,0,0,7.63.63c2.11-.21,4.24-.13,6.37-.19a21.5,21.5,0,0,0,2.78-.17c3.08-.54,6.18-1,9.24-1.75a50.09,50.09,0,0,0,13.4-5.22,24.65,24.65,0,0,0,7.58-6.34A11.11,11.11,0,0,0,82,60.41a9.28,9.28,0,0,0-2.67-7.36,21.85,21.85,0,0,0-8.63-6,30.72,30.72,0,0,0-10.36-2.19,47.13,47.13,0,0,0-11.61.95c-1.1.24-2.19.51-3.29.77l0,.33Z" transform="translate(-0.16 -0.16)"/>
    <path class="cls-1" d="M46.27,25a3.43,3.43,0,0,1,.28,1,9.18,9.18,0,0,1-2.82,6.27,4.68,4.68,0,0,1-6.49,0c-.79-.78-1.53-1.61-2.31-2.44-.84.63-.82,1.59-1,2.47A7.21,7.21,0,0,1,30.5,37a4.54,4.54,0,0,1-6-1.47,8.59,8.59,0,0,0-.73-1,.92.92,0,0,0-.58-.27c-.07,0-.22.3-.25.48A17.83,17.83,0,0,0,22.67,37a22.17,22.17,0,0,1-1.2,6.3,3.71,3.71,0,0,0-.21.81c-.08.88.23,1.1,1.09.93,2.41-.46,4.82-.87,7.22-1.33,2.18-.42,4.34-.9,6.52-1.31s4.37-.79,6.55-1.19l6.24-1.15,7.21-1.34c2.41-.45,4.81-.92,7.22-1.34,2-.36,4-.66,6-1,1.38-.24,2.76-.51,4.13-.78.61-.12.84-.44.6-1.11a22,22,0,0,1-1.43-8.18c-.22.13-.39.17-.46.28C71,28.27,69,28.06,67.56,27a14.33,14.33,0,0,1-1.14-.92c-.54-.49-.92-.26-1.24.25l-2,3.25a8.46,8.46,0,0,1-.84,1.27c-1.47,1.63-3.37,1.42-5.15.9-4.25-1.24-6.7-4.21-7.66-8.47-.07-.33-.21-.64-.37-1.13-.31.41-.51.66-.7.93a4.11,4.11,0,0,1-.51.75,7.42,7.42,0,0,1-1,.54c-.16-.4-.51-.83-.46-1.2.27-1.94.67-3.87,1-5.81.35-2.3,1-4.56.88-6.93,0-.61,0-1.23.79-1.37s1.27.13,1.45,1.08a26.58,26.58,0,0,1,.55,4.25,42.53,42.53,0,0,0,1.27,10.36c.84,3,4.27,5.74,7.08,5.55a1.83,1.83,0,0,0,1.66-.78c.6-1.05,1.12-2.16,1.76-3.18a14.82,14.82,0,0,0,1.55-4.21,3.49,3.49,0,0,1,.74-1.38A1.59,1.59,0,0,1,67,20.31c.68.28.56.92.65,1.44A24.26,24.26,0,0,0,68,24.33c.33,1.23,1.1,1.56,2.33,1.29.62-.13,1.28-.11,1.92-.2a.61.61,0,0,0,.39-.36c.64-1.95,1.25-3.91,1.89-5.87.28-.88.68-1.15,1.34-.93a1.18,1.18,0,0,1,.85,1.7c-.48,1.5-1,3-1.42,4.5a14.42,14.42,0,0,0,.08,7.06c.23.93.57,1.84.83,2.77.21.76.81.83,1.44.85H79c.16.78-.34.94-.8,1.11-1,.36-1,.52-.61,1.47a9.84,9.84,0,0,1,.64,1.63,3.76,3.76,0,0,1,0,1A4.11,4.11,0,0,1,76,38.5c-.6-1.1-.86-1.23-2.06-1l-11.29,2-8.35,1.54c-3.26.58-6.53,1.14-9.79,1.74-2.3.43-4.59.92-6.9,1.36-3,.6-6.11,1.15-9.15,1.77-2.45.5-4.87,1.08-7.31,1.62a4.18,4.18,0,0,1-1.1.16c-1.47-.1-2-1-1.49-2.6.55-1.75,1.12-3.49,1.52-5.27.54-2.36,1-4.75,1.34-7.14.17-1,.1-2.12.2-3.18,0-.32.21-.84.4-.87.38-.07,1,0,1.17.24.69.94,1.26,2,1.85,3s1,1.9,1.64,2.77c1,1.42,1.81,1.39,3.23.26A6.25,6.25,0,0,0,32.21,30c.1-1.92.38-3.83.61-5.74a1.52,1.52,0,0,1,1.39-1.13,1.71,1.71,0,0,1,1.57,1.15,35.22,35.22,0,0,0,1,3.83,6.73,6.73,0,0,0,2.59,3.35,1.72,1.72,0,0,0,2.23-.13,9.82,9.82,0,0,0,2.8-3.68c.48-.92,1-1.82,1.49-2.73Z" transform="translate(-0.16 -0.16)"/>
    <path class="cls-1" d="M66.15,85l2.28,4.7c-.77.67-1.1.6-1.56-.28-.21-.4-.1-1.08-.93-1.14,0,.51,0,1,0,1.47,0,.24-.18.66-.31.67a1.34,1.34,0,0,1-.9-.23,8.83,8.83,0,0,1-1-1.21c-.59,1,.47,1.63.27,2.47-.93.48-1,.46-1.32-.61l-1.35-4c.75-.6,1.1-.59,1.77.1s1,1.12,1.68,1.81A3.4,3.4,0,0,0,65,88a8.07,8.07,0,0,0,0-1.63C64.85,85.45,65.25,85.07,66.15,85Z" transform="translate(-0.16 -0.16)"/>
    <path class="cls-1" d="M39.43,92.12,40.84,87c1.18.19,2.4.16,3.36,1a1.17,1.17,0,0,1,.21,1.57,1.35,1.35,0,0,0-.15.89c.54,1.83-.54,2.26-2,2.28A12.58,12.58,0,0,1,39.43,92.12Zm3.92-1a1.81,1.81,0,0,0-1.79-.82c-.23,0-.46.46-.58.75,0,.11.23.45.42.51A1.68,1.68,0,0,0,43.35,91.17ZM42.18,88c-.29.42-.57.63-.59.87-.08.8.7.37,1,.61.06,0,.43-.31.65-.49Z" transform="translate(-0.16 -0.16)"/>
    <path class="cls-1" d="M28.05,87.5l3-4.64a27.68,27.68,0,0,1,2.69,1.75A1.42,1.42,0,0,1,33.23,87c-1,.41-1,.41-.77,1.48.1.42.14.84.21,1.28A1.64,1.64,0,0,1,31.09,88c0-.18.06-.4,0-.54a7.88,7.88,0,0,0-.57-.85c-.19.14-.38.27-.55.42a1.48,1.48,0,0,0-.26.3C29.08,88.29,29.08,88.29,28.05,87.5Zm3.63-3.26a6.6,6.6,0,0,0-.7,1.12,3.35,3.35,0,0,0,1.26.82c.15,0,.48-.42.72-.65Z" transform="translate(-0.16 -0.16)"/>
    <path class="cls-1" d="M51.13,88.12a25.63,25.63,0,0,1,2.92,0,1.81,1.81,0,0,1,1.14.74A1.44,1.44,0,0,1,55,90.65a5.47,5.47,0,0,1-.7.61l2.16,1.37c-1,.85-1.76.77-2.29.16s-.93-1-1.39-1.52l-.31.13a5.85,5.85,0,0,0-.15,1.15c.08.92.11.92-.83.89l-.4,0Zm1.95,2.36c.32-.27.88-.51.93-.83.1-.6-.58-.68-1-.69a1,1,0,0,0-.79.58C52.16,89.92,52.37,90.36,53.08,90.48Z" transform="translate(-0.16 -0.16)"/>
    <path class="cls-1" d="M36.79,85.78a2.57,2.57,0,0,1,2.61,2.68,2.89,2.89,0,0,1-2.91,2.81,2.68,2.68,0,0,1-2.74-2.67A2.82,2.82,0,0,1,36.79,85.78Zm-.4,4.37c.81.18,1.77-.75,1.87-1.86a1.7,1.7,0,0,0-1.42-1.57A2,2,0,0,0,35,88.65,1.41,1.41,0,0,0,36.39,90.15Z" transform="translate(-0.16 -0.16)"/>
    <path class="cls-1" d="M45.11,93.19c.14-1.17.29-2.33.43-3.5,0-.12.07-.24.08-.37.13-1.45.13-1.49,1.48-1.34a3.17,3.17,0,0,1,2.75,1.4,2.74,2.74,0,0,1-.27,3.11,3,3,0,0,1-2.87.93C46.23,93.39,45.75,93.29,45.11,93.19Zm1.46-1.76c0,.57,0,1.14.71,1a1.73,1.73,0,0,0,1.55-1.09,1.78,1.78,0,0,0-.44-1.92,2,2,0,0,0-1.18-.35c-.15,0-.41.37-.46.61C46.64,90.29,46.62,90.89,46.57,91.43Z" transform="translate(-0.16 -0.16)"/>
    <path class="cls-1" d="M70.92,83.37c-.17,1.35-1.78.59-2.14,1.67.16.3.34.48.86.32a6.36,6.36,0,0,1,1.9-.19,1.41,1.41,0,0,1,1.33.88,1.49,1.49,0,0,1-.4,1.69,3.84,3.84,0,0,1-3.13,1.15c-.18,0-.34-.28-.51-.43a3,3,0,0,1,.76-.63c.52-.19,1.1-.21,1.6-.41.23-.09.35-.46.51-.71a3.09,3.09,0,0,0-.78-.29c-.65,0-1.3,0-2,0-1.3,0-1.84-.93-1.21-2.07A2.78,2.78,0,0,1,70.92,83.37Z" transform="translate(-0.16 -0.16)"/>
    <path class="cls-1" d="M60.25,87.05c.29,1,.6,2,.84,3A2.15,2.15,0,0,1,59,92.82c-1.72.12-2.38-.68-2.7-2.27a14.78,14.78,0,0,1-.3-2.19.83.83,0,0,1,.39-.67c.32-.14.64,0,.7.45.12.83.31,1.64.45,2.47a1.23,1.23,0,1,0,2.45,0,18.84,18.84,0,0,0-.59-2.44C59.07,87.15,59.16,87,60.25,87.05Z" transform="translate(-0.16 -0.16)"/>
    <path id="_10" data-name="10" d="M47.59,47.71l-2.17-.82,0-.33c1.1-.26,2.19-.53,3.29-.77a47.13,47.13,0,0,1,11.61-.95A30.72,30.72,0,0,1,70.72,47a21.85,21.85,0,0,1,8.63,6A9.28,9.28,0,0,1,82,60.41a11.11,11.11,0,0,1-2.39,5.48,24.65,24.65,0,0,1-7.58,6.34,50.09,50.09,0,0,1-13.4,5.22c-3.06.7-6.16,1.21-9.24,1.75a21.5,21.5,0,0,1-2.78.17c-2.13.06-4.26,0-6.37.19a31.91,31.91,0,0,1-7.63-.63A30.86,30.86,0,0,1,25.1,77a11.74,11.74,0,0,1-6.44-5.3,7.59,7.59,0,0,1,0-6.64c1.28-3.18,3.6-5.51,6.12-7.71a40.36,40.36,0,0,1,10-6.26,36.74,36.74,0,0,1,7.89-2.35Zm-5,6.65a10.67,10.67,0,0,1-.5,1.26c-.84,1.51-1.78,3-2.55,4.53A11.07,11.07,0,0,0,38.27,67a4.24,4.24,0,0,0,2.66,3.55,1.17,1.17,0,0,0,.92-.22c.11-.08,0-.55-.08-.78-.35-.7-.78-1.37-1.15-2.07-.53-1-.43-1.33.64-1.74,2.52-1,5-2.05,7.58-2.81,2.36-.68,4.83-1,7.25-1.47.56-.1.73.19.47.74s-.62,1.18-.88,1.79A6.4,6.4,0,0,0,56,70.39c.43.67.34,1-.39,1.28a6.21,6.21,0,0,1-.74.2l-6.39,1.48a39.92,39.92,0,0,1-9.29,1.15c-2,0-4-.29-6-.44a7.29,7.29,0,0,1-5.93-3.17c-.14-.2-.51-.25-.77-.37-.08.32-.3.69-.21.94a6.17,6.17,0,0,0,3.46,3.62A18.77,18.77,0,0,0,37,76.55a33.15,33.15,0,0,0,4.34-.16,67.86,67.86,0,0,0,7.54-1c3.57-.77,7.1-1.78,10.62-2.78A41.48,41.48,0,0,0,72.13,66.9a7,7,0,0,0,3.05-3.72,2.27,2.27,0,0,0-.8-2.79,10,10,0,0,0-5.2-1.78c-1.84-.14-3.68-.11-5.52-.19a1.86,1.86,0,0,1-.86-.25,2.06,2.06,0,0,0-2.41.08,8.69,8.69,0,0,1-2,.78c-.18.06-.45-.16-.67-.26.14-.18.24-.43.43-.53.58-.33,1.2-.58,1.78-.91C62,56.15,64.21,55,66.28,53.72c1.67-1,1.78-3.06-.24-4.08a13,13,0,0,0-5.5-1.17,31.06,31.06,0,0,0-5.09.3,54.32,54.32,0,0,0-6.94,1.16,49.77,49.77,0,0,0-5.92,2.22A47.61,47.61,0,0,0,33.46,57a46.79,46.79,0,0,0-4.62,3.55A14.24,14.24,0,0,0,25,65.11c-.58,1.26-.39,2.79.53,3.28a3.45,3.45,0,0,0,3.51.06,1.07,1.07,0,0,0,.51-1.21c-.07-.58-.5-.66-.95-.68s-1.13,0-1.71,0C27.65,63.05,36.61,56.31,42.6,54.36Z" transform="translate(-0.16 -0.16)"/>
    <path id="_9" data-name="9" d="M43.35,91.17a1.68,1.68,0,0,1-2,.44c-.19-.06-.46-.4-.42-.51.12-.29.35-.72.58-.75A1.81,1.81,0,0,1,43.35,91.17Z" transform="translate(-0.16 -0.16)"/>
    <path id="_8" data-name="8" d="M42.18,88l1.09,1c-.22.18-.59.54-.65.49-.33-.24-1.11.19-1-.61C41.61,88.62,41.89,88.41,42.18,88Z" transform="translate(-0.16 -0.16)"/>
    <path id="_7" data-name="7" d="M31.68,84.24,33,85.53c-.24.23-.57.7-.72.65A3.35,3.35,0,0,1,31,85.36,6.6,6.6,0,0,1,31.68,84.24Z" transform="translate(-0.16 -0.16)"/>
    <path id="_6" data-name="6" d="M53.08,90.48c-.71-.12-.92-.56-.84-.94A1,1,0,0,1,53,89c.4,0,1.08.09,1,.69C54,90,53.4,90.21,53.08,90.48Z" transform="translate(-0.16 -0.16)"/>
    <path id="_5" data-name="5" d="M36.39,90.15A1.41,1.41,0,0,1,35,88.65a2,2,0,0,1,1.84-1.93,1.7,1.7,0,0,1,1.42,1.57C38.16,89.4,37.2,90.33,36.39,90.15Z" transform="translate(-0.16 -0.16)"/>
    <path id="_4" data-name="4" d="M46.57,91.43c0-.54.07-1.14.18-1.71,0-.24.31-.62.46-.61a2,2,0,0,1,1.18.35,1.78,1.78,0,0,1,.44,1.92,1.73,1.73,0,0,1-1.55,1.09C46.56,92.57,46.54,92,46.57,91.43Z" transform="translate(-0.16 -0.16)"/>
    <path id="_3" data-name="3" class="cls-1" d="M42.6,54.36c-6,2-15,8.69-15.7,12.2.58,0,1.15,0,1.71,0s.88.1.95.68a1.07,1.07,0,0,1-.51,1.21,3.45,3.45,0,0,1-3.51-.06c-.92-.49-1.11-2-.53-3.28a14.24,14.24,0,0,1,3.83-4.61A46.79,46.79,0,0,1,33.46,57a47.61,47.61,0,0,1,9.13-4.8,49.77,49.77,0,0,1,5.92-2.22,54.32,54.32,0,0,1,6.94-1.16,31.06,31.06,0,0,1,5.09-.3A13,13,0,0,1,66,49.64c2,1,1.91,3,.24,4.08C64.21,55,62,56.15,59.89,57.33c-.58.33-1.2.58-1.78.91-.19.1-.29.35-.43.53.22.1.49.32.67.26a8.69,8.69,0,0,0,2-.78,2.06,2.06,0,0,1,2.41-.08,1.86,1.86,0,0,0,.86.25c1.84.08,3.68,0,5.52.19a10,10,0,0,1,5.2,1.78,2.27,2.27,0,0,1,.8,2.79,7,7,0,0,1-3.05,3.72,41.48,41.48,0,0,1-12.61,5.74c-3.52,1-7.05,2-10.62,2.78a67.86,67.86,0,0,1-7.54,1,33.15,33.15,0,0,1-4.34.16,18.77,18.77,0,0,1-7.32-1.47,6.17,6.17,0,0,1-3.46-3.62c-.09-.25.13-.62.21-.94.26.12.63.17.77.37a7.29,7.29,0,0,0,5.93,3.17c2,.15,4,.43,6,.44a39.92,39.92,0,0,0,9.29-1.15l6.39-1.48a6.21,6.21,0,0,0,.74-.2c.73-.29.82-.61.39-1.28A6.4,6.4,0,0,1,55.68,64c.26-.61.6-1.19.88-1.79s.09-.84-.47-.74c-2.42.46-4.89.79-7.25,1.47-2.58.76-5.06,1.85-7.58,2.81-1.07.41-1.17.72-.64,1.74.37.7.8,1.37,1.15,2.07.12.23.19.7.08.78a1.17,1.17,0,0,1-.92.22A4.24,4.24,0,0,1,38.27,67a11.07,11.07,0,0,1,1.28-6.81c.77-1.55,1.71-3,2.55-4.53A10.67,10.67,0,0,0,42.6,54.36Zm20.95-2.59-.11-.31a4.93,4.93,0,0,0-1.27-.65,24.77,24.77,0,0,0-2.59-.33,10.31,10.31,0,0,0-2-.14c-1.68.15-3.35.4-5,.6a9.9,9.9,0,0,0-6.45,3.35c-.71.81-1.39,1.64-2,2.51a16.54,16.54,0,0,0-2.52,4.77,3.28,3.28,0,0,0-.05.63,5.61,5.61,0,0,0,.71,0,1.62,1.62,0,0,0,.42-.15c1.68-.76,3.35-1.5,5-2.27,4.46-2.07,8.93-4.11,13.37-6.23A19.34,19.34,0,0,0,63.55,51.77Zm8.57,10.54a5.14,5.14,0,0,0-.7-.65,8.44,8.44,0,0,0-3.69-.87c-.7,0-1.41.05-2.11,0-1.77-.2-3.46-.43-5,1.06A10,10,0,0,0,58.31,65a4.57,4.57,0,0,0,.1,3.89c.38.78.56.95,1.39.67,3.74-1.29,7.46-2.63,10.56-5.2A16.58,16.58,0,0,0,72.12,62.31Z" transform="translate(-0.16 -0.16)"/>
    <path id="_2" data-name="2" d="M63.55,51.77A19.34,19.34,0,0,1,61,53.53c-4.44,2.12-8.91,4.16-13.37,6.23-1.67.77-3.34,1.51-5,2.27a1.62,1.62,0,0,1-.42.15,5.61,5.61,0,0,1-.71,0,3.28,3.28,0,0,1,.05-.63,16.54,16.54,0,0,1,2.52-4.77c.64-.87,1.32-1.7,2-2.51a9.9,9.9,0,0,1,6.45-3.35c1.68-.2,3.35-.45,5-.6a10.31,10.31,0,0,1,2,.14,24.77,24.77,0,0,1,2.59.33,4.93,4.93,0,0,1,1.27.65Z" transform="translate(-0.16 -0.16)"/>
    <path id="_1" data-name="1" d="M72.12,62.31a16.58,16.58,0,0,1-1.76,2c-3.1,2.57-6.82,3.91-10.56,5.2-.83.28-1,.11-1.39-.67a4.57,4.57,0,0,1-.1-3.89,10,10,0,0,1,2.36-3.16c1.49-1.49,3.18-1.26,5-1.06.7.08,1.41,0,2.11,0a8.44,8.44,0,0,1,3.69.87A5.14,5.14,0,0,1,72.12,62.31Z" transform="translate(-0.16 -0.16)"/>
  </g>
</svg>
