<svg id="Layer_1" data-name="Layer 1" xmlns="http://www.w3.org/2000/svg" viewBox="0 0 100 100">
  <defs>
    <style>
      .cls-1 {
        fill: #fff;
      }
    </style>
  </defs>
  <title>ROBDRUMSBLK</title>
  <g>
    <path class="cls-1" d="M53,100.16H47.34c-.25,0-.5-.11-.76-.14-2.11-.28-4.25-.41-6.32-.86C25,95.82,13.53,87.24,6,73.55A44.81,44.81,0,0,1,.6,56.21c-.15-1.5-.3-3-.44-4.49V47.19c0-.23.11-.45.14-.68.28-2.08.43-4.19.86-6.24A49.36,49.36,0,0,1,18.47,11.48,47.45,47.45,0,0,1,42.8.76l4.7-.6h5.16c.32,0,.65.11,1,.15,2,.22,4,.3,5.88.69a49.33,49.33,0,0,1,31,19.63,47.93,47.93,0,0,1,9.19,23c.16,1.34.3,2.68.45,4v5.78c0,.2-.11.39-.14.59-.35,2.33-.56,4.7-1.06,7a48.82,48.82,0,0,1-12.45,23.4A49.33,49.33,0,0,1,56.83,99.69C55.55,99.88,54.26,100,53,100.16ZM50.26,2.74C24.43,2.29,2.81,24.26,2.71,49.81A47.79,47.79,0,0,0,50.29,97.56c26.16,0,47.48-21.94,47.29-47.29C97.37,23.9,76.55,2.78,50.26,2.74Z" transform="translate(-0.16 -0.16)"/>
    <path id="fifteen" d="M.16,51.72c.14,1.49.29,3,.44,4.49A44.81,44.81,0,0,0,6,73.55c7.53,13.69,19,22.27,34.26,25.61,2.07.45,4.21.58,6.32.86.26,0,.51.09.76.14H.16Z" transform="translate(-0.16 -0.16)"/>
    <path id="fourteen" d="M47.5.16l-4.7.6A47.45,47.45,0,0,0,18.47,11.48,49.36,49.36,0,0,0,1.16,40.27c-.43,2-.58,4.16-.86,6.24,0,.23-.1.45-.14.68V.16Z" transform="translate(-0.16 -0.16)"/>
    <path id="thirteen" d="M53,100.16c1.29-.16,2.58-.28,3.86-.47A49.33,49.33,0,0,0,86.51,84.43,48.82,48.82,0,0,0,99,61c.5-2.3.71-4.67,1.06-7,0-.2.09-.39.14-.59v46.72Z" transform="translate(-0.16 -0.16)"/>
    <path id="twelve" d="M100.16,47.66c-.15-1.34-.29-2.68-.45-4a47.93,47.93,0,0,0-9.19-23A49.33,49.33,0,0,0,59.52,1C57.59.61,55.6.53,53.64.31c-.33,0-.66-.1-1-.15h47.5Z" transform="translate(-0.16 -0.16)"/>
    <path id="eleven" d="M50.26,2.74c26.29,0,47.11,21.16,47.32,47.53.19,25.35-21.13,47.27-47.29,47.29A47.79,47.79,0,0,1,2.71,49.81C2.81,24.26,24.43,2.29,50.26,2.74Zm9.53,39.14c-.91,0-1.82,0-2.73,0a57.28,57.28,0,0,0-12,1.83A68.28,68.28,0,0,0,22.32,55.41a22.2,22.2,0,0,0-7.69,9.81,11,11,0,0,0,2.49,12.44,17.37,17.37,0,0,0,8.7,5c3.41.77,6.9,1.23,10.36,1.75a23.89,23.89,0,0,0,5,.42c4-.29,7.94-.66,11.87-1.25a64,64,0,0,0,22.55-7.78,25.2,25.2,0,0,0,8-7.35A13,13,0,0,0,86.44,60c-.25-4.33-2.39-7.7-5.47-10.6C75,43.77,67.76,41.8,59.79,41.88ZM33.92,28.66l1,1.11a13.84,13.84,0,0,0,1.43,1.53c2.29,1.83,5,2.48,7.54-.47a9.22,9.22,0,0,0,2.47-6.22,3,3,0,0,0-.4-1,3.24,3.24,0,0,0-.87.65,11.84,11.84,0,0,0-.89,1.64,12.86,12.86,0,0,1-2.79,4,2,2,0,0,1-3.21,0A8.6,8.6,0,0,1,35.77,26c-.3-1-.48-2.12-.76-3.17a1.69,1.69,0,0,0-3.31.33c-.21,2.15-.43,4.3-.63,6.45a5.93,5.93,0,0,1-1.87,4c-2,1.84-3.17,1.68-4.5-.72-.72-1.29-1.35-2.63-2.06-3.93a3.52,3.52,0,0,0-1-1.29,1.74,1.74,0,0,0-1.42-.17c-.26.1-.37.76-.41,1.18a20.93,20.93,0,0,1,0,2.38c-.89,4.69-1.46,9.44-3.19,14-.66,1.73.31,2.86,2.18,2.71a5.1,5.1,0,0,0,.68-.13c6.31-1.3,12.6-2.71,18.93-3.9,12.3-2.33,24.63-4.52,36.94-6.81a1.61,1.61,0,0,1,1.87.82,11.33,11.33,0,0,0,1.72,1.88c.17.17.54.13.81.18.06-.3.23-.65.15-.92a17.11,17.11,0,0,0-.76-1.95c-.25-.59-.13-1,.5-1.24a2.59,2.59,0,0,0,.77-.36c.19-.14.44-.45.4-.59a.93.93,0,0,0-.6-.49,3.91,3.91,0,0,0-1.08,0c-.58,0-1.09,0-1.34-.67a17.44,17.44,0,0,1-1.13-9.93c.38-1.82,1.11-3.56,1.62-5.35a1.62,1.62,0,0,0-.12-1.29,1.83,1.83,0,0,0-1.32-.6c-.33,0-.79.5-.93.87-.81,2.21-1.54,4.44-2.27,6.6l-2.48.42a1.61,1.61,0,0,1-2-1.19,4,4,0,0,1-.2-.83c-.11-.9-.17-1.81-.29-2.71a1.13,1.13,0,0,0-1.3-1.06,2.23,2.23,0,0,0-2.15,1.91A16.9,16.9,0,0,1,63,25.79c-.44.66-.72,1.43-1.14,2.1-.23.38-.56.86-.93.94a5.4,5.4,0,0,1-2.36.1A8.09,8.09,0,0,1,52.23,22c-.51-3-.66-6.09-1-9.14-.17-1.67-.33-3.35-.59-5a1.25,1.25,0,0,0-1.47-1.17c-.77.08-1,.45-1.07,1.42a15.17,15.17,0,0,1-.09,2c-.49,3.1-1,6.2-1.54,9.3a19.16,19.16,0,0,0-.34,2.7,1.21,1.21,0,0,0,.61.94c.23.1.71-.19,1-.43a5.78,5.78,0,0,0,.71-1c.16-.25.35-.48.62-.86.35,1.15.61,2.15,1,3.11,1.61,4.51,6.07,7.59,10.47,7.27a3.58,3.58,0,0,0,3-1.87c.78-1.34,1.61-2.66,2.43-4,.57-.94.7-1,1.6-.24a13.08,13.08,0,0,0,1.84,1.31,3.13,3.13,0,0,0,4-.91,3.68,3.68,0,0,1,.35-.3,25.19,25.19,0,0,0,1.53,8.43c.31.85.08,1.13-.89,1.29-2.92.5-5.84,1-8.76,1.49Q56.49,38,47.33,39.69,36.26,41.75,25.2,43.85c-1.46.28-2.91.58-4.37.84-1.06.18-1.3-.11-1-1.13,0-.1,0-.21.07-.31a29.55,29.55,0,0,0,1.42-7.63c0-.74.19-1.47.32-2.41a7,7,0,0,1,.79.65c.31.38.59.79.89,1.19a4.81,4.81,0,0,0,6.56,1,8.5,8.5,0,0,0,3.45-5.56A9.89,9.89,0,0,1,33.92,28.66Zm33,61.85.24,0c.21.4.42.8.62,1.21.5,1,.82,1.08,1.76.27L67.41,87.5c-.15-.33-.2-.82-.78-.59s-1,.32-.91,1,0,1.74,0,2.84c-.33-.31-.51-.47-.68-.64l-1.5-1.59c-.43-.47-.93-.26-1.36-.06a.64.64,0,0,0-.25.61q.7,2.31,1.51,4.57a.77.77,0,0,0,.62.38c.8,0,.94-.26.69-1-.18-.52-.32-1-.47-1.58l.24-.08a5.77,5.77,0,0,0,.88,1,1.53,1.53,0,0,0,1,.39c.2,0,.39-.57.45-.91A7.37,7.37,0,0,0,66.93,90.51ZM41.84,95.29c1.84-.11,2.83-.92,2.19-2.66a1,1,0,0,1,.08-.7,1.48,1.48,0,0,0-.86-2.3,13.07,13.07,0,0,0-2.41-.6.88.88,0,0,0-.7.45c-.47,1.51-.89,3-1.28,4.56a.71.71,0,0,0,.31.63C40.09,94.93,41,95.11,41.84,95.29ZM26.68,89.67c.33.2.58.33.81.49.4.27.62.13.89-.24a9.92,9.92,0,0,1,1.09-1.16A9.53,9.53,0,0,1,30,90.39a1.74,1.74,0,0,0,1.82,1.73l-.42-2.66.41-.1a1.77,1.77,0,0,0,1.62-1.55A1.74,1.74,0,0,0,32.32,86c-.63-.36-1.28-.7-1.89-1.08-.42-.26-.65-.15-.88.23Zm30.18,5.87c-.56-.52-1-.94-1.47-1.37s-.57-.74,0-1.22a1.51,1.51,0,0,0,.27-1.81,1.53,1.53,0,0,0-1.45-1c-.78,0-1.56,0-2.34,0-.62,0-.83.24-.82.83,0,1.51,0,3,.12,4.52a.77.77,0,0,0,.48.54c.84.19,1.12-.14,1-1a5.1,5.1,0,0,1,.11-1.09c.34.19.68.36,1,.57a1.55,1.55,0,0,1,.3.36C54.89,95.92,55.3,96,56.86,95.54ZM47,96a3,3,0,0,0,3.29-2.71,2.9,2.9,0,0,0-2.69-3.13c-.43-.08-.88-.07-1.31-.18-.67-.17-.89.14-1,.73-.15,1.29-.33,2.58-.48,3.86s-.13,1.19,1.07,1.34C46.29,95.9,46.65,95.92,47,96ZM36,87.63c-1.6-.22-3.24,1.48-3.26,3.09a2.88,2.88,0,0,0,3,2.91,3,3,0,0,0,3.19-3A3,3,0,0,0,36,87.63Zm36.8,1,.12.27c-.24.24-.45.57-.75.68-.47.17-1,.11-1.48.29a2.17,2.17,0,0,0-.81.76.9.9,0,0,0,.39.48A4,4,0,0,0,74,89.66a1.55,1.55,0,0,0,.17-1.82,1.67,1.67,0,0,0-1.74-.78c-.59.07-1.19.14-1.78.17a3.29,3.29,0,0,1-.74-.13l0-.22a5.52,5.52,0,0,1,.68-.43,8,8,0,0,0,1.11-.34,1.36,1.36,0,0,0,.48-.7c0-.1-.16-.37-.3-.43a3,3,0,0,0-3.28,1.52,1.44,1.44,0,0,0,1.31,2.09c.7,0,1.4,0,2.1,0C72.23,88.54,72.5,88.58,72.76,88.6ZM59.09,95.34c2.1,0,3.15-1.36,2.63-3.37-.21-.81-.43-1.61-.64-2.41-.12-.47-.34-.73-.9-.56s-.67.38-.52.91c.27,1,.47,1.91.71,2.87a.9.9,0,0,1-.64,1.16c-.88.35-1.49,0-1.71-1.1-.18-.91-.33-1.84-.5-2.75-.1-.52-.51-.54-.84-.38s-.55.46-.53.67a24.65,24.65,0,0,0,.44,2.84A2.44,2.44,0,0,0,59.09,95.34Z" transform="translate(-0.16 -0.16)"/>
    <path class="cls-1" d="M59.79,41.88c8-.08,15.22,1.89,21.18,7.5,3.08,2.9,5.22,6.27,5.47,10.6a13,13,0,0,1-2.75,8.42,25.2,25.2,0,0,1-8,7.35,64,64,0,0,1-22.55,7.78c-3.93.59-7.9,1-11.87,1.25a23.89,23.89,0,0,1-5-.42c-3.46-.52-6.95-1-10.36-1.75a17.37,17.37,0,0,1-8.7-5,11,11,0,0,1-2.49-12.44,22.2,22.2,0,0,1,7.69-9.81A68.28,68.28,0,0,1,45.06,43.72a57.28,57.28,0,0,1,12-1.83C58,41.84,58.88,41.88,59.79,41.88Zm-12,5.65-.46.15c-1.22.25-2.43.55-3.66.76a41.18,41.18,0,0,0-20.93,9.87c-2.69,2.37-5,5-6.12,8.49A7.76,7.76,0,0,0,18.43,75a14.22,14.22,0,0,0,6.11,3.78,45.07,45.07,0,0,0,14.85,2.39,84,84,0,0,0,15.9-1.41,62.32,62.32,0,0,0,17-5.79,26.68,26.68,0,0,0,9.18-7.49,10.1,10.1,0,0,0,2.16-8.18,11,11,0,0,0-3.1-5.49c-4.92-5.18-11.18-7.43-18.1-8.05A48.81,48.81,0,0,0,46,46.24a6,6,0,0,0-.68.22l0,.22,1.11.41Z" transform="translate(-0.16 -0.16)"/>
    <path class="cls-1" d="M33.92,28.66a9.89,9.89,0,0,0-.62,1.87,8.5,8.5,0,0,1-3.45,5.56,4.81,4.81,0,0,1-6.56-1c-.3-.4-.58-.81-.89-1.19a7,7,0,0,0-.79-.65c-.13.94-.29,1.67-.32,2.41a29.55,29.55,0,0,1-1.42,7.63c0,.1,0,.21-.07.31-.27,1,0,1.31,1,1.13,1.46-.26,2.91-.56,4.37-.84q11.06-2.09,22.13-4.16Q56.48,38,65.65,36.33c2.92-.53,5.84-1,8.76-1.49,1-.16,1.2-.44.89-1.29a25.19,25.19,0,0,1-1.53-8.43,3.68,3.68,0,0,0-.35.3,3.13,3.13,0,0,1-4,.91A13.08,13.08,0,0,1,67.55,25c-.9-.71-1-.7-1.6.24-.82,1.33-1.65,2.65-2.43,4a3.58,3.58,0,0,1-3,1.87c-4.4.32-8.86-2.76-10.47-7.27-.35-1-.61-2-1-3.11-.27.38-.46.61-.62.86a5.78,5.78,0,0,1-.71,1c-.26.24-.74.53-1,.43a1.21,1.21,0,0,1-.61-.94,19.16,19.16,0,0,1,.34-2.7c.51-3.1,1.05-6.2,1.54-9.3a15.17,15.17,0,0,0,.09-2c0-1,.3-1.34,1.07-1.42a1.25,1.25,0,0,1,1.47,1.17c.26,1.67.42,3.35.59,5,.33,3.05.48,6.13,1,9.14a8.09,8.09,0,0,0,6.33,6.94,5.4,5.4,0,0,0,2.36-.1c.37-.08.7-.56.93-.94.42-.67.7-1.44,1.14-2.1a16.9,16.9,0,0,0,2.18-5.46,2.23,2.23,0,0,1,2.15-1.91,1.13,1.13,0,0,1,1.3,1.06c.12.9.18,1.81.29,2.71a4,4,0,0,0,.2.83,1.61,1.61,0,0,0,2,1.19l2.48-.42c.73-2.16,1.46-4.39,2.27-6.6.14-.37.6-.85.93-.87a1.83,1.83,0,0,1,1.32.6,1.62,1.62,0,0,1,.12,1.29C77.77,20,77,21.74,76.66,23.56a17.44,17.44,0,0,0,1.13,9.93c.25.64.76.71,1.34.67a3.91,3.91,0,0,1,1.08,0,.93.93,0,0,1,.6.49c0,.14-.21.45-.4.59a2.59,2.59,0,0,1-.77.36c-.63.23-.75.65-.5,1.24a17.11,17.11,0,0,1,.76,1.95c.08.27-.09.62-.15.92-.27-.05-.64,0-.81-.18a11.33,11.33,0,0,1-1.72-1.88,1.61,1.61,0,0,0-1.87-.82C63,39.12,50.71,41.31,38.41,43.64c-6.33,1.19-12.62,2.6-18.93,3.9a5.1,5.1,0,0,1-.68.13c-1.87.15-2.84-1-2.18-2.71,1.73-4.51,2.3-9.26,3.19-13.95a20.93,20.93,0,0,0,0-2.38c0-.42.15-1.08.41-1.18a1.74,1.74,0,0,1,1.42.17,3.52,3.52,0,0,1,1,1.29c.71,1.3,1.34,2.64,2.06,3.93,1.33,2.4,2.47,2.56,4.5.72a5.93,5.93,0,0,0,1.87-4c.2-2.15.42-4.3.63-6.45A1.69,1.69,0,0,1,35,22.79c.28,1.05.46,2.13.76,3.17a8.6,8.6,0,0,0,2.45,3.92,2,2,0,0,0,3.21,0,12.86,12.86,0,0,0,2.79-4,11.84,11.84,0,0,1,.89-1.64A3.24,3.24,0,0,1,46,23.6a3,3,0,0,1,.4,1,9.22,9.22,0,0,1-2.47,6.22c-2.5,3-5.25,2.3-7.54.47a13.84,13.84,0,0,1-1.43-1.53Z" transform="translate(-0.16 -0.16)"/>
    <path class="cls-1" d="M66.93,90.51a7.37,7.37,0,0,1,0,1.33c-.06.34-.25.87-.45.91a1.53,1.53,0,0,1-1-.39,5.77,5.77,0,0,1-.88-1l-.24.08c.15.53.29,1.06.47,1.58.25.75.11,1-.69,1a.77.77,0,0,1-.62-.38q-.81-2.26-1.51-4.57a.64.64,0,0,1,.25-.61c.43-.2.93-.41,1.36.06l1.5,1.59c.17.17.35.33.68.64,0-1.1.06-2,0-2.84s.42-.86.91-1,.63.26.78.59L69.55,92c-.94.81-1.26.75-1.76-.27-.2-.41-.41-.81-.62-1.21Z" transform="translate(-0.16 -0.16)"/>
    <path class="cls-1" d="M41.84,95.29c-.81-.18-1.75-.36-2.67-.62a.71.71,0,0,1-.31-.63c.39-1.53.81-3.05,1.28-4.56a.88.88,0,0,1,.7-.45,13.07,13.07,0,0,1,2.41.6,1.48,1.48,0,0,1,.86,2.3,1,1,0,0,0-.08.7C44.67,94.37,43.68,95.18,41.84,95.29Zm1.15-2a12.37,12.37,0,0,0-1.76-.58c-.17,0-.49.31-.59.55s.11.59.23.61A1.79,1.79,0,0,0,43,93.26Zm-.2-1.88.05-.3a3,3,0,0,0-.93-.56c-.21,0-.48.28-.72.44.16.17.3.47.48.5A4.77,4.77,0,0,0,42.79,91.38Z" transform="translate(-0.16 -0.16)"/>
    <path class="cls-1" d="M26.68,89.67l2.87-4.53c.23-.38.46-.49.88-.23.61.38,1.26.72,1.89,1.08a1.74,1.74,0,0,1,1.07,1.82,1.77,1.77,0,0,1-1.62,1.55l-.41.1.42,2.66A1.74,1.74,0,0,1,30,90.39a9.53,9.53,0,0,0-.49-1.63,9.92,9.92,0,0,0-1.09,1.16c-.27.37-.49.51-.89.24C27.26,90,27,89.87,26.68,89.67Zm4.55-1.37a7.83,7.83,0,0,0,.61-.75,6.53,6.53,0,0,0-1.18-1c-.05,0-.43.47-.65.73Z" transform="translate(-0.16 -0.16)"/>
    <path class="cls-1" d="M56.86,95.54c-1.56.5-2,.38-2.81-.71a1.55,1.55,0,0,0-.3-.36c-.33-.21-.67-.38-1-.57A5.1,5.1,0,0,0,52.63,95c.09.88-.19,1.21-1,1a.77.77,0,0,1-.48-.54c-.07-1.51-.07-3-.12-4.52,0-.59.2-.86.82-.83.78,0,1.56,0,2.34,0a1.53,1.53,0,0,1,1.45,1A1.51,1.51,0,0,1,55.34,93c-.52.48-.37.83,0,1.22S56.3,95,56.86,95.54ZM53,92.75l1.2-.84a4,4,0,0,0-1-.65c-.37-.1-.86,0-.8.56C52.46,92.1,52.75,92.35,53,92.75Z" transform="translate(-0.16 -0.16)"/>
    <path class="cls-1" d="M47,96c-.37,0-.73,0-1.09-.09-1.2-.15-1.21-.15-1.07-1.34s.33-2.57.48-3.86c.08-.59.3-.9,1-.73.43.11.88.1,1.31.18a2.9,2.9,0,0,1,2.69,3.13A3,3,0,0,1,47,96Zm1.73-3a1.62,1.62,0,0,0-1.23-1.67c-.46-.1-.76,0-.81.55-.08.72-.18,1.44-.27,2.16-.06.47.14.67.61.67A1.6,1.6,0,0,0,48.75,93Z" transform="translate(-0.16 -0.16)"/>
    <path class="cls-1" d="M36,87.63a3,3,0,0,1,2.94,3,3,3,0,0,1-3.19,3,2.88,2.88,0,0,1-3-2.91C32.72,89.11,34.36,87.41,36,87.63Zm.09,1.29a1.91,1.91,0,0,0-1.81,1.88,1.39,1.39,0,0,0,1.39,1.54,2,2,0,0,0,1.84-2A1.46,1.46,0,0,0,36.05,88.92Z" transform="translate(-0.16 -0.16)"/>
    <path class="cls-1" d="M72.76,88.6c-.26,0-.53-.06-.8-.06-.7,0-1.4.07-2.1,0a1.44,1.44,0,0,1-1.31-2.09A3,3,0,0,1,71.83,85c.14.06.34.33.3.43a1.36,1.36,0,0,1-.48.7,8,8,0,0,1-1.11.34,5.52,5.52,0,0,0-.68.43l0,.22a3.29,3.29,0,0,0,.74.13c.59,0,1.19-.1,1.78-.17a1.67,1.67,0,0,1,1.74.78A1.55,1.55,0,0,1,74,89.66a4,4,0,0,1-3.75,1.42.9.9,0,0,1-.39-.48,2.17,2.17,0,0,1,.81-.76c.46-.18,1-.12,1.48-.29.3-.11.51-.44.75-.68Z" transform="translate(-0.16 -0.16)"/>
    <path class="cls-1" d="M59.09,95.34a2.44,2.44,0,0,1-2.5-2.12,24.65,24.65,0,0,1-.44-2.84c0-.21.29-.56.53-.67s.74-.14.84.38c.17.91.32,1.84.5,2.75.22,1.07.83,1.45,1.71,1.1a.9.9,0,0,0,.64-1.16c-.24-1-.44-1.92-.71-2.87-.15-.53,0-.76.52-.91s.78.09.9.56c.21.8.43,1.6.64,2.41C62.24,94,61.19,95.33,59.09,95.34Z" transform="translate(-0.16 -0.16)"/>
    <path id="ten" d="M47.82,47.53l-1.42-.44-1.11-.41,0-.22a6,6,0,0,1,.68-.22,48.81,48.81,0,0,1,16.4-1.52c6.92.62,13.18,2.87,18.1,8.05a11,11,0,0,1,3.1,5.49,10.1,10.1,0,0,1-2.16,8.18,26.68,26.68,0,0,1-9.18,7.49,62.32,62.32,0,0,1-17,5.79,84,84,0,0,1-15.9,1.41,45.07,45.07,0,0,1-14.85-2.39A14.22,14.22,0,0,1,18.43,75a7.76,7.76,0,0,1-1.78-8.16c1.12-3.5,3.43-6.12,6.12-8.49A41.18,41.18,0,0,1,43.7,48.44c1.23-.21,2.44-.51,3.66-.76Zm-6,7.13.24.2-.72,1.32c-.92,1.65-1.89,3.28-2.73,5a12,12,0,0,0-1.28,5.25c0,2.27.66,4.23,2.87,5.28a1.18,1.18,0,0,0,1.1-.11,1.25,1.25,0,0,0,0-1.09c-.39-.82-.9-1.58-1.34-2.37a.82.82,0,0,1,.47-1.31c.69-.3,1.4-.56,2.09-.86a48.28,48.28,0,0,1,11.75-3.54c.88-.13,1.76-.18,2.83-.29l-.56,1.09c-1.49,2.84-2.32,5.7-.21,8.65.1.14,0,.6-.22.75a2.38,2.38,0,0,1-.93.36c-1.46.35-2.93.7-4.4,1A62,62,0,0,1,40.7,75.68a53.34,53.34,0,0,1-9.11-.44A7.22,7.22,0,0,1,26,72c-.16-.25-.62-.31-.94-.46-.08.43-.34.93-.21,1.28a5.94,5.94,0,0,0,3.06,3.39,17.61,17.61,0,0,0,3.41,1.3,34.56,34.56,0,0,0,12.42.26,96.94,96.94,0,0,0,17.2-4A46,46,0,0,0,73.33,68a8.74,8.74,0,0,0,3.18-3.56,2.67,2.67,0,0,0-1.16-3.8,10.93,10.93,0,0,0-3.61-1.36C69.51,59,67.23,59,65,58.89a2.25,2.25,0,0,1-1.13-.19c-1.17-.9-2.18-.64-3.26.16a2.53,2.53,0,0,1-2.42.34,2.45,2.45,0,0,1,.76-.62c1.86-.94,3.75-1.81,5.57-2.82a19.55,19.55,0,0,0,3.28-2.23,2.23,2.23,0,0,0-.43-3.78,9.89,9.89,0,0,0-2.44-1,23,23,0,0,0-7.76-.35A46.21,46.21,0,0,0,42.31,52c-5.45,2.53-10.78,5.22-15.15,9.44a29.59,29.59,0,0,0-3.31,3.92,4.5,4.5,0,0,0-.67,2.27,2.07,2.07,0,0,0,1.62,2.13,3.2,3.2,0,0,0,3.36-.47,1.34,1.34,0,0,0,.25-1.24,1.78,1.78,0,0,0-1.14-.71,7,7,0,0,0-1.59,0l-.12-.23C29.54,61.05,35.5,57.59,41.87,54.66Z" transform="translate(-0.16 -0.16)"/>
    <path id="nine" d="M43,93.26a1.79,1.79,0,0,1-2.12.58c-.12,0-.29-.46-.23-.61s.42-.58.59-.55A12.37,12.37,0,0,1,43,93.26Z" transform="translate(-0.16 -0.16)"/>
    <path id="eight" d="M42.79,91.38a4.77,4.77,0,0,1-1.12.08c-.18,0-.32-.33-.48-.5.24-.16.51-.48.72-.44a3,3,0,0,1,.93.56Z" transform="translate(-0.16 -0.16)"/>
    <path id="seven" d="M31.23,88.3l-1.22-1c.22-.26.6-.76.65-.73a6.53,6.53,0,0,1,1.18,1A7.83,7.83,0,0,1,31.23,88.3Z" transform="translate(-0.16 -0.16)"/>
    <path id="six" d="M53,92.75c-.27-.4-.56-.65-.59-.93-.06-.54.43-.66.8-.56a4,4,0,0,1,1,.65Z" transform="translate(-0.16 -0.16)"/>
    <path id="five" d="M48.75,93a1.6,1.6,0,0,1-1.7,1.71c-.47,0-.67-.2-.61-.67.09-.72.19-1.44.27-2.16,0-.52.35-.65.81-.55A1.62,1.62,0,0,1,48.75,93Z" transform="translate(-0.16 -0.16)"/>
    <path id="four" d="M36.05,88.92a1.46,1.46,0,0,1,1.42,1.47,2,2,0,0,1-1.84,2,1.39,1.39,0,0,1-1.39-1.54A1.91,1.91,0,0,1,36.05,88.92Z" transform="translate(-0.16 -0.16)"/>
    <path id="three" class="cls-1" d="M41.87,54.66c-6.37,2.93-12.33,6.39-16.31,12.43l.12.23a7,7,0,0,1,1.59,0,1.78,1.78,0,0,1,1.14.71,1.34,1.34,0,0,1-.25,1.24,3.2,3.2,0,0,1-3.36.47,2.07,2.07,0,0,1-1.62-2.13,4.5,4.5,0,0,1,.67-2.27,29.59,29.59,0,0,1,3.31-3.92c4.37-4.22,9.7-6.91,15.15-9.44a46.21,46.21,0,0,1,14.84-3.59,23,23,0,0,1,7.76.35,9.89,9.89,0,0,1,2.44,1,2.23,2.23,0,0,1,.43,3.78,19.55,19.55,0,0,1-3.28,2.23c-1.82,1-3.71,1.88-5.57,2.82a2.45,2.45,0,0,0-.76.62,2.53,2.53,0,0,0,2.42-.34c1.08-.8,2.09-1.06,3.26-.16a2.25,2.25,0,0,0,1.13.19c2.25.12,4.53.09,6.76.38a10.93,10.93,0,0,1,3.61,1.36,2.67,2.67,0,0,1,1.16,3.8A8.74,8.74,0,0,1,73.33,68a46,46,0,0,1-12.39,5.75,96.94,96.94,0,0,1-17.2,4,34.56,34.56,0,0,1-12.42-.26,17.61,17.61,0,0,1-3.41-1.3,5.94,5.94,0,0,1-3.06-3.39c-.13-.35.13-.85.21-1.28.32.15.78.21.94.46a7.22,7.22,0,0,0,5.59,3.26,53.34,53.34,0,0,0,9.11.44A62,62,0,0,0,50.84,74c1.47-.33,2.94-.68,4.4-1a2.38,2.38,0,0,0,.93-.36c.17-.15.32-.61.22-.75-2.11-3-1.28-5.81.21-8.65l.56-1.09c-1.07.11-1.95.16-2.83.29A48.28,48.28,0,0,0,42.58,66c-.69.3-1.4.56-2.09.86A.82.82,0,0,0,40,68.12c.44.79.95,1.55,1.34,2.37a1.25,1.25,0,0,1,0,1.09,1.18,1.18,0,0,1-1.1.11c-2.21-1-2.88-3-2.87-5.28a12,12,0,0,1,1.28-5.25c.84-1.7,1.81-3.33,2.73-5l.72-1.32Zm22.35-3a5.82,5.82,0,0,0-1.4-.64,28.24,28.24,0,0,0-9.31,0c-2.19.36-4.4.73-6.11,2.29a21.69,21.69,0,0,0-6.2,8.84c-.07.22-.09.47-.18.91.69-.23,1.21-.36,1.7-.58q4.39-2,8.79-4t9-4.18A10.86,10.86,0,0,0,64.22,51.61Zm-5.8,16.33a2,2,0,0,0,0,.5c.13.47.3.94.44,1.41a.94.94,0,0,0,1.37.69,38.88,38.88,0,0,0,9.43-4.19,18,18,0,0,0,3-2.74c.52-.54.35-1.07-.35-1.34a9.05,9.05,0,0,0-2.31-.65c-1.73-.15-3.48-.06-5.21-.26a4.68,4.68,0,0,0-4.32,1.92l-.27.29A6.68,6.68,0,0,0,58.42,67.94Z" transform="translate(-0.16 -0.16)"/>
    <path id="two" d="M64.22,51.61a10.86,10.86,0,0,1-3.75,2.61q-4.47,2.12-9,4.18t-8.79,4c-.49.22-1,.35-1.7.58.09-.44.11-.69.18-.91a21.69,21.69,0,0,1,6.2-8.84c1.71-1.56,3.92-1.93,6.11-2.29a28.24,28.24,0,0,1,9.31,0A5.82,5.82,0,0,1,64.22,51.61Z" transform="translate(-0.16 -0.16)"/>
    <path id="one" d="M58.42,67.94a6.68,6.68,0,0,1,1.87-4.37l.27-.29a4.68,4.68,0,0,1,4.32-1.92c1.73.2,3.48.11,5.21.26a9.05,9.05,0,0,1,2.31.65c.7.27.87.8.35,1.34a18,18,0,0,1-3,2.74,38.88,38.88,0,0,1-9.43,4.19.94.94,0,0,1-1.37-.69c-.14-.47-.31-.94-.44-1.41A2,2,0,0,1,58.42,67.94Z" transform="translate(-0.16 -0.16)"/>
  </g>
</svg>
