<svg id="Layer_1" data-name="Layer 1" xmlns="http://www.w3.org/2000/svg" viewBox="0 0 99.96 99.98">
  <defs>
    <style>
      .cls-1 {
        fill: #fff;
      }
    </style>
  </defs>
  <title>sticks</title>
  <g>
    <path class="cls-1" d="M.2,100.2V.21h100v100ZM85.8,11.14a5.88,5.88,0,0,0-1,.17,9.31,9.31,0,0,0-5.79,5.15,4.4,4.4,0,0,1-1,1.31c-5.9,5.41-12,10.62-17.69,16.23-16,15.73-31.81,31.62-47.7,47.45a10.89,10.89,0,0,0-.93,1,4.31,4.31,0,0,0,2.32,6.65,4.65,4.65,0,0,0,4.57-1.53c14-14,27.92-28.05,42-42,7.6-7.52,14.8-15.38,21.85-23.4a4.57,4.57,0,0,1,1.3-1c2.74-1.45,4.84-3.43,5.31-6.66C89.41,12.62,88.06,11.15,85.8,11.14Zm-72,2.19a7.58,7.58,0,0,1,1.63.33A6.54,6.54,0,0,1,19,17.29a5.65,5.65,0,0,0,1.69,2.29c6.87,6.08,13.84,12.06,20.18,18.71,1.48,1.55,3,3.05,4.56,4.56.66.65,1.34.68,1.87.14s.46-1.19-.18-1.88l-.34-.34C39,32.62,30.64,25.07,22.17,17.64a4.79,4.79,0,0,1-1-1.3c-1.44-2.7-3.41-4.76-6.58-5.28a2.91,2.91,0,0,0-3.49,3.07A5.34,5.34,0,0,0,11.56,16a9.54,9.54,0,0,0,5,5.18,3.31,3.31,0,0,1,1.07.79c6,6.75,11.77,13.75,18.31,20,1.76,1.69,3.44,3.46,5.19,5.17.84.82,2,.61,2.21-.43a2,2,0,0,0-.62-1.48c-3.42-3.49-7-6.83-10.3-10.41C28.13,30.18,24,25.31,19.8,20.52a6.75,6.75,0,0,0-2.27-1.74,10.25,10.25,0,0,1-2.73-2.12A3.51,3.51,0,0,1,13.75,13.33ZM89.47,85a4.35,4.35,0,0,0-1.53-3.23l-24.3-24.3c-1.47-1.48-2.94-3-4.43-4.41a1.1,1.1,0,0,0-1.72,0,1.13,1.13,0,0,0,0,1.73c.24.26.5.51.75.77L81,78.2q2.73,2.72,5.45,5.45a1.81,1.81,0,0,1,.55,2c-.27.73-.8,1.27-1.5,1.17a3.51,3.51,0,0,1-1.91-.95Q70.6,73,57.71,60c-.87-.88-1.75-1.75-2.63-2.62s-1.42-.87-2-.26-.45,1.24.32,2l.14.14L73.76,79.49c2.83,2.83,5.65,5.68,8.5,8.48a4.13,4.13,0,0,0,4.78.87A3.94,3.94,0,0,0,89.47,85Z" transform="translate(-0.2 -0.21)"/>
    <path id="top-stick" d="M85.8,11.14c2.26,0,3.61,1.48,3.32,3.44-.47,3.23-2.57,5.21-5.31,6.66a4.57,4.57,0,0,0-1.3,1c-7.05,8-14.25,15.88-21.85,23.4-14.07,13.91-28,28-42,42a4.65,4.65,0,0,1-4.57,1.53,4.31,4.31,0,0,1-2.32-6.65,10.89,10.89,0,0,1,.93-1C28.6,65.62,44.43,49.73,60.41,34c5.7-5.61,11.79-10.82,17.69-16.23a4.4,4.4,0,0,0,1-1.31,9.31,9.31,0,0,1,5.79-5.15A5.88,5.88,0,0,1,85.8,11.14ZM15,87.06a13,13,0,0,0,1.84-1.25q17.3-17.3,34.58-34.6C61.67,41,72,30.78,81.33,19.72a2.45,2.45,0,0,1,.94-.58,7,7,0,0,0,4.37-4.42c.35-1-.06-1.41-1.14-1.1a6.07,6.07,0,0,0-4.11,3.61,7.59,7.59,0,0,1-2.25,2.83l-1.61,1.42c-4.39,3.89-9,7.58-13.11,11.7C47.65,49.78,31,66.51,14.33,83.2c-.23.23-.59.44-.65.72a3.84,3.84,0,0,0-.11,1.92C13.73,86.3,14.4,86.58,15,87.06Z" transform="translate(-0.2 -0.21)"/>
    <path id="top-front" d="M13.75,13.33a3.51,3.51,0,0,0,1.05,3.33,10.25,10.25,0,0,0,2.73,2.12,6.75,6.75,0,0,1,2.27,1.74c4.2,4.79,8.33,9.66,12.66,14.34,3.31,3.58,6.88,6.92,10.3,10.41a2,2,0,0,1,.62,1.48c-.17,1-1.37,1.25-2.21.43C39.42,45.47,37.74,43.7,36,42c-6.54-6.27-12.3-13.27-18.31-20a3.31,3.31,0,0,0-1.07-.79,9.54,9.54,0,0,1-5-5.18,5.34,5.34,0,0,1-.41-1.89,2.91,2.91,0,0,1,3.49-3.07c3.17.52,5.14,2.58,6.58,5.28a4.79,4.79,0,0,0,1,1.3c8.47,7.43,16.83,15,24.62,23.13l.34.34c.64.69.71,1.35.18,1.88s-1.21.51-1.87-.14c-1.53-1.51-3.08-3-4.56-4.56C34.54,31.64,27.57,25.66,20.7,19.58A5.65,5.65,0,0,1,19,17.29a6.54,6.54,0,0,0-3.63-3.63A7.58,7.58,0,0,0,13.75,13.33Z" transform="translate(-0.2 -0.21)"/>
    <path id="bottom-back" d="M89.47,85A3.94,3.94,0,0,1,87,88.84,4.13,4.13,0,0,1,82.26,88c-2.85-2.8-5.67-5.65-8.5-8.48L53.53,59.26l-.14-.14c-.77-.78-.87-1.45-.32-2s1.2-.54,2,.26S56.84,59.1,57.71,60Q70.62,73,83.57,85.9a3.51,3.51,0,0,0,1.91.95c.7.1,1.23-.44,1.5-1.17a1.81,1.81,0,0,0-.55-2Q83.72,80.92,81,78.2L58.26,55.49c-.25-.26-.51-.51-.75-.77a1.13,1.13,0,0,1,0-1.73,1.1,1.1,0,0,1,1.72,0c1.49,1.46,3,2.93,4.43,4.41l24.3,24.3A4.35,4.35,0,0,1,89.47,85Z" transform="translate(-0.2 -0.21)"/>
    <path class="cls-1" d="M15,87.06c-.59-.48-1.26-.76-1.42-1.22a3.84,3.84,0,0,1,.11-1.92c.06-.28.42-.49.65-.72C31,66.51,47.65,49.78,64.42,33.18c4.15-4.12,8.72-7.81,13.11-11.7l1.61-1.42a7.59,7.59,0,0,0,2.25-2.83,6.07,6.07,0,0,1,4.11-3.61c1.08-.31,1.49.07,1.14,1.1a7,7,0,0,1-4.37,4.42,2.45,2.45,0,0,0-.94.58C72,30.78,61.67,41,51.41,51.21Q34.09,68.47,16.83,85.81A13,13,0,0,1,15,87.06Z" transform="translate(-0.2 -0.21)"/>
  </g>
</svg>
